HIERARCHY
ROOT hip
{
	OFFSET 0.000000 0.000000 0.000000 
	CHANNELS 6 Xposition Yposition Zposition Xrotation Zrotation Yrotation
	JOINT abdomen
	{
		OFFSET 0.000000 3.402643 0.000000 
		CHANNELS 3 Xrotation Zrotation Yrotation
		JOINT chest
		{
			OFFSET 0.000000 8.438565 -0.680529 
			CHANNELS 3 Xrotation Zrotation Yrotation
			JOINT neck
			{
				OFFSET 0.000000 10.207942 -0.272212 
				CHANNELS 3 Xrotation Zrotation Yrotation
				JOINT head
				{
					OFFSET 0.000000 3.130431 0.000000 
					CHANNELS 3 Xrotation Zrotation Yrotation
					End Site
					{
						OFFSET 0.000000 3.130435 0.000000 
					}
				}
			}
			JOINT lCollar
			{
				OFFSET 3.470700 6.669187 -0.816635 
				CHANNELS 3 Yrotation Zrotation Xrotation
				JOINT lShldr
				{
					OFFSET 3.198488 0.000000 0.000000 
					CHANNELS 3 Zrotation Yrotation Xrotation
					JOINT lForeArm
					{
						OFFSET 10.139888 0.000000 0.000000 
						CHANNELS 3 Yrotation Zrotation Xrotation
						JOINT lHand
						{
							OFFSET 8.370511 0.000000 0.000000 
							CHANNELS 3 Zrotation Yrotation Xrotation
							End Site
							{
								OFFSET 4.083176 0.000000 0.000000 
							}
						}
					}
				}
			}
			JOINT rCollar
			{
				OFFSET -3.470700 6.669187 -0.816635 
				CHANNELS 3 Yrotation Zrotation Xrotation
				JOINT rShldr
				{
					OFFSET -3.198488 0.000000 0.000000 
					CHANNELS 3 Zrotation Yrotation Xrotation
					JOINT rForeArm
					{
						OFFSET -10.139888 0.000000 0.000000 
						CHANNELS 3 Yrotation Zrotation Xrotation
						JOINT rHand
						{
							OFFSET -8.370511 0.000000 0.000000 
							CHANNELS 3 Zrotation Yrotation Xrotation
							End Site
							{
								OFFSET -4.083176 0.000000 0.000000 
							}
						}
					}
				}
			}
		}
	}
	JOINT lThigh
	{
		OFFSET 5.308129 -1.633274 1.361059 
		CHANNELS 3 Xrotation Zrotation Yrotation
		JOINT lShin
		{
			OFFSET -2.041588 -20.007561 0.000000 
			CHANNELS 3 Xrotation Zrotation Yrotation
			JOINT lFoot
			{
				OFFSET 0.000000 -19.190928 -1.224953 
				CHANNELS 3 Xrotation Yrotation Zrotation
				End Site
				{
					OFFSET 0.000000 -2.449906 4.627600 
				}
			}
		}
	}
	JOINT rThigh
	{
		OFFSET -5.308129 -1.633274 1.361059 
		CHANNELS 3 Xrotation Zrotation Yrotation
		JOINT rShin
		{
			OFFSET 2.041588 -20.007561 0.000000 
			CHANNELS 3 Xrotation Zrotation Yrotation
			JOINT rFoot
			{
				OFFSET 0.000000 -19.190928 -1.224953 
				CHANNELS 3 Xrotation Yrotation Zrotation
				End Site
				{
					OFFSET 0.000000 -2.449906 4.627600 
				}
			}
		}
	}
}
MOTION
Frames: 15
Frame Time: 0.016667
3.930467 32.015610 3.976604 -19.482901 4.724250 35.040001 -20.738100 -1.376590 5.763640 18.759100 -1.542210 2.489780 8.462150 4.510090 7.126380 9.350550 6.912360 4.033890 2.000000 -2.000000 0.000000 -84.111198 -27.856100 -161.078995 138.789001 -0.104648 0.106303 0.050259 -0.042107 -152.136993 -2.000000 2.000000 0.000000 -102.190002 146.134995 5.268310 -140.401001 0.117027 0.071168 -0.078154 0.065518 -161.022995 -11.435280 22.459351 -10.928628 75.881203 0.919163 4.119873 -35.737228 -2.269423 -1.266881 3.052904 4.139523 0.715128 74.822495 -0.975650 -4.086719 -40.924435 -9.455636 -9.321786 
3.733550 32.346558 3.682221 -18.119400 4.688200 35.245701 -20.160500 -1.480100 5.849340 18.749500 -1.346990 2.522950 8.332190 4.600340 7.006800 9.252320 6.923370 3.974190 2.000000 -2.000000 0.000000 -84.326698 -28.003901 -161.630005 138.613998 -0.104945 0.106640 0.050930 -0.044504 -153.024994 -2.000000 2.000000 0.000000 -101.515999 146.313004 5.853820 -139.658005 0.118083 0.072428 -0.078177 0.065568 -161.042999 -12.549248 21.074858 -11.218387 74.694038 1.001745 4.073445 -35.012268 -1.729595 -0.878462 1.810937 3.739580 0.980698 73.951088 -1.005789 -4.072208 -41.206860 -9.080639 -9.155151 
3.528139 32.992615 3.338938 -16.550301 4.231870 34.691601 -19.728701 -1.416680 5.851060 18.720301 -1.132230 2.546060 8.217430 4.284160 7.206210 9.122820 6.798570 4.045330 2.000000 -2.000000 0.000000 -84.064201 -28.279400 -162.548004 138.623001 -0.104928 0.106622 0.051433 -0.046209 -153.660004 -2.000000 2.000000 0.000000 -100.754997 146.285995 7.025760 -138.945999 0.119113 0.073626 -0.077887 0.064918 -160.789001 -13.321722 19.803429 -11.083054 72.617645 1.115490 4.057050 -33.248775 -1.054630 -0.370340 -0.051594 3.249027 1.734171 72.755562 -1.079149 -4.053943 -39.667141 -9.400379 -8.990779 
3.322718 33.638672 2.995654 -14.984800 3.792680 34.132500 -19.286900 -1.358770 5.865140 18.700899 -0.927248 2.559330 8.093230 3.958320 7.404430 8.993410 6.673680 4.115890 2.000000 -2.000000 0.000000 -83.801598 -28.554899 -163.475006 138.632996 -0.104912 0.106603 0.051962 -0.047934 -154.304993 -2.000000 2.000000 0.000000 79.996696 33.730598 -171.802002 -138.233002 0.120158 0.074810 -0.077601 0.064267 -160.535004 -14.111125 18.562145 -10.912556 70.597878 1.240040 3.997412 -31.551901 -0.331741 0.116784 -1.955034 2.782163 2.509534 71.560822 -1.134961 -4.038795 -38.081776 -9.732599 -8.824448 
3.160052 34.520977 2.620625 -13.078700 3.300970 33.452499 -18.897800 -1.217940 5.710690 18.798700 -0.605184 2.508810 7.734020 3.397790 7.718920 8.784790 6.491230 4.242760 2.000000 -2.000000 0.000000 -83.324799 -29.240499 -164.341995 138.574997 -0.105011 0.106715 0.051719 -0.047150 -154.011993 -2.000000 2.000000 0.000000 79.938202 33.943600 -171.001007 -137.919998 0.120621 0.075326 -0.076317 0.061247 -159.363007 -15.191891 16.917162 -10.955173 68.452110 1.354184 3.956722 -28.981091 1.286246 0.955649 -4.257707 1.731544 3.180244 70.053436 -1.180927 -4.018270 -34.955318 -8.503009 -7.239800 
2.997375 35.403278 2.245607 -11.175900 2.826320 32.752602 -18.508499 -1.072750 5.567500 18.896500 -0.283084 2.449610 7.375740 2.836930 8.051080 8.576250 6.298860 4.379940 2.000000 -2.000000 0.000000 -82.828400 -29.926201 -165.229996 138.516006 -0.105110 0.106827 0.051488 -0.046392 -153.727997 -2.000000 2.000000 0.000000 79.869904 34.146801 -170.199997 -137.617004 0.121072 0.075822 -0.075086 0.067942 -158.181000 -16.230934 15.306471 -10.937970 66.178772 1.462866 3.898553 -26.323561 2.930767 1.731255 -6.596293 0.724488 3.859709 68.701004 -1.263795 -3.993626 -32.009338 -7.206469 -5.693077 
2.863580 36.373882 1.813677 -9.393550 2.466520 31.721399 -18.219700 -0.795742 5.275630 18.671900 0.175686 2.347730 6.410640 2.067390 8.553870 8.279150 6.068210 4.612630 2.000000 -2.000000 0.000000 -82.243896 -30.368099 -166.322006 138.653000 -0.104879 0.106565 0.051655 -0.046941 -153.932999 -2.000000 2.000000 0.000000 79.460297 34.662601 -169.466003 -137.500000 0.121247 0.076014 -0.074537 0.066512 -157.634995 -17.405226 13.890439 -10.530423 64.345993 1.543734 3.839991 -22.450266 4.722425 2.171826 -9.188520 -0.489182 4.838878 67.524658 -1.319997 -3.951046 -27.267401 -5.323707 -4.003577 
2.729774 37.344486 1.381765 -7.612810 2.148880 30.670099 -17.921301 -0.517673 4.986960 18.456900 0.634339 2.242370 5.429650 1.311770 9.065590 7.992180 5.837150 4.859510 2.000000 -2.000000 0.000000 -81.639801 -30.810101 -167.414993 138.789001 -0.104648 0.106303 0.051816 -0.047464 -154.128998 -2.000000 2.000000 0.000000 79.050797 35.178501 -168.731995 -137.382996 0.121423 0.076205 -0.064237 0.055311 -157.087997 -18.478399 12.518310 -10.057627 62.357033 1.635076 3.796895 -18.534718 6.517840 2.491057 -11.687853 -1.654260 5.875104 66.223007 -1.364434 -3.941858 -22.594696 -3.297107 -2.483804 
2.639904 38.311279 0.960253 -6.126200 1.835170 29.285601 -17.427799 -0.330087 4.734050 18.417700 0.829500 2.136990 4.032960 0.376034 9.530390 7.625350 5.401750 5.077490 2.000000 -2.000000 0.000000 -80.869400 -31.125000 -168.406006 139.091995 -0.104140 0.105719 0.052218 -0.048742 -154.606995 -2.000000 2.000000 0.000000 78.730301 36.212299 -168.143997 -137.403000 0.121393 0.076173 -0.074908 0.067483 -158.005997 -19.500620 11.573144 -9.342565 60.525707 1.683873 3.747855 -14.151308 7.920699 2.294197 -14.114337 -2.391982 7.376469 64.811661 -1.437910 -3.904123 -17.635262 -2.189790 -1.853528 
2.550032 39.278061 0.538728 -4.630620 1.557400 27.901300 -16.943800 -0.128169 4.492060 18.368799 1.024640 2.031180 2.629660 -0.557156 10.014300 7.269060 4.965710 5.312540 2.000000 -2.000000 0.000000 -80.089203 -31.420300 -169.410995 139.395004 -0.103634 0.105133 0.052622 -0.049991 -155.076004 -2.000000 2.000000 0.000000 78.419701 37.255798 -167.539993 -137.421997 0.121364 0.076141 -0.075852 0.060108 -158.923996 -20.581009 10.639249 -8.646168 58.840378 1.743696 3.697954 -9.860922 9.336688 1.986056 -16.511497 -3.042040 8.910198 63.360249 -1.518090 -3.848876 -12.723840 -1.041079 -1.318549 
2.476822 40.061699 0.192089 -3.350210 1.082130 26.801901 -16.639799 0.074447 4.086410 18.163500 1.219640 1.853340 1.317340 -1.234610 10.495800 6.825380 4.549220 5.516860 2.000000 -2.000000 0.000000 -79.289101 -31.617500 -170.210999 139.531998 -0.103407 0.104867 0.052975 -0.051055 -155.475998 -2.000000 2.000000 0.000000 78.040298 37.987301 -167.138000 -137.666000 0.120999 0.075742 -0.077156 0.063238 -160.134995 -21.737038 10.125070 -8.096830 57.390480 1.791756 3.660511 -6.562569 7.995220 1.417383 -18.190779 -2.962636 10.319393 61.292370 -1.610893 -3.788546 -11.018818 -1.773794 -1.461279 
2.403600 40.845337 -0.154560 -2.060670 0.634355 25.699800 -16.335199 0.290861 3.690550 17.958200 1.414560 1.683880 -0.004049 -1.895340 10.990600 6.382360 4.132140 5.728400 2.000000 -2.000000 0.000000 -78.488998 -31.795200 -171.020996 139.667999 -0.103181 0.104601 0.053336 -0.052117 -155.876999 -2.000000 2.000000 0.000000 77.660896 38.718700 -166.725998 -137.910004 0.120635 0.075342 -0.078525 0.066340 -161.345993 -22.941011 9.603889 -7.568781 56.097290 1.825473 3.619088 -3.401187 6.618212 0.902201 -19.857733 -2.849659 11.720893 59.322079 -1.702842 -3.728843 -9.413069 -2.539531 -1.554859 
2.393916 41.350475 -0.371686 -0.585941 0.185537 24.666100 -16.274000 0.424731 3.325590 17.928699 1.599880 1.508640 -0.852142 -2.399620 11.398100 6.106690 3.801660 5.901690 2.000000 -2.000000 0.000000 -78.098602 -31.796200 -171.460999 139.423996 -0.103586 0.105076 0.053344 -0.052143 -155.886993 -2.000000 2.000000 0.000000 77.426697 39.019901 -166.031998 -138.095993 0.120360 0.075036 -0.079677 0.068820 -162.322006 -23.856031 8.739722 -7.139992 54.471279 1.858089 3.564975 -2.679275 4.179782 0.760826 -21.282492 -2.464350 12.908710 57.184776 -1.788400 -3.645236 -9.410191 -2.905771 -1.643211 
2.384211 41.855606 -0.588818 0.898444 -0.224582 23.609699 -16.202499 0.558699 2.961070 17.899099 1.794940 1.342520 -1.710060 -2.894580 11.811600 5.831300 3.470980 6.068350 2.000000 -2.000000 0.000000 102.292000 -148.212997 8.099910 139.179993 -0.103993 0.105549 0.053362 -0.052195 -155.906006 -2.000000 2.000000 0.000000 77.202301 39.311199 -165.328003 -138.281006 0.120086 0.074730 -0.080883 0.071305 -163.307999 -24.778646 7.879071 -6.700440 52.961918 1.904823 3.512993 -2.084422 1.751202 0.616723 -22.644648 -2.069779 14.087262 55.029213 -1.864062 -3.591010 -9.443137 -3.288749 -1.718929 
2.449423 42.106308 -0.670037 2.099620 -0.146386 22.094200 -16.194300 0.537231 2.875960 18.006500 1.834120 1.305090 -1.953990 -3.289280 12.256700 5.771800 3.266230 6.273360 2.000000 -2.000000 0.000000 102.253998 -148.621994 8.001300 138.955002 -0.104369 0.105983 0.053309 -0.052040 -155.848007 -2.000000 2.000000 0.000000 77.474503 39.220501 -164.117004 -138.085999 0.120375 0.075052 -0.080726 0.070987 -163.181000 -24.270437 6.518768 -5.926178 50.550289 1.970584 3.413814 -2.784872 2.662749 0.694799 -23.103701 -1.802817 15.109735 52.880527 -1.958975 -3.492592 -8.753603 -3.393982 -1.625817 
